<svg width="735" height="285" version="1.1" fill="none" xmlns="http://www.w3.org/2000/svg">
    <path
        d="M15,7.5c0,4.141 -3.359,7.5 -7.5,7.5c-1.992,0 -3.898,-0.793 -5.305,-2.199c-1.406,-1.407 -2.195,-3.313 -2.195,-5.301c-0,-1.992 0.789,-3.899 2.195,-5.305c1.407,-1.406 3.313,-2.195 5.305,-2.195c4.141,0 7.5,3.355 7.5,7.5Z"
        fill="#000" />
    <path
        d="M105,7.5c0,4.141 -3.359,7.5 -7.5,7.5c-1.992,0 -3.898,-0.793 -5.305,-2.199c-1.406,-1.407 -2.195,-3.313 -2.195,-5.301c0,-1.992 0.789,-3.899 2.195,-5.305c1.407,-1.406 3.313,-2.195 5.305,-2.195c4.141,0 7.5,3.355 7.5,7.5Z"
        fill="#000" />
    <path
        d="M195,7.5c0,4.141 -3.359,7.5 -7.5,7.5c-1.992,0 -3.898,-0.793 -5.305,-2.199c-1.406,-1.407 -2.195,-3.313 -2.195,-5.301c0,-1.992 0.789,-3.899 2.195,-5.305c1.407,-1.406 3.313,-2.195 5.305,-2.195c4.141,0 7.5,3.355 7.5,7.5Z"
        fill="#000" />
    <path
        d="M285,7.5c0,4.141 -3.359,7.5 -7.5,7.5c-1.992,0 -3.898,-0.793 -5.305,-2.199c-1.406,-1.407 -2.195,-3.313 -2.195,-5.301c0,-1.992 0.789,-3.899 2.195,-5.305c1.407,-1.406 3.313,-2.195 5.305,-2.195c4.141,0 7.5,3.355 7.5,7.5Z"
        fill="#000" />
    <path
        d="M375,7.5c0,4.141 -3.359,7.5 -7.5,7.5c-1.992,0 -3.898,-0.793 -5.305,-2.199c-1.406,-1.407 -2.195,-3.313 -2.195,-5.301c0,-1.992 0.789,-3.899 2.195,-5.305c1.407,-1.406 3.313,-2.195 5.305,-2.195c4.141,0 7.5,3.355 7.5,7.5Z"
        fill="#000" />
    <path
        d="M465,7.5c0,4.141 -3.359,7.5 -7.5,7.5c-1.992,0 -3.898,-0.793 -5.305,-2.199c-1.406,-1.407 -2.195,-3.313 -2.195,-5.301c0,-1.992 0.789,-3.899 2.195,-5.305c1.407,-1.406 3.313,-2.195 5.305,-2.195c4.141,0 7.5,3.355 7.5,7.5Z"
        fill="#000" />
    <path
        d="M555,7.5c0,4.141 -3.359,7.5 -7.5,7.5c-1.992,0 -3.898,-0.793 -5.305,-2.199c-1.406,-1.407 -2.195,-3.313 -2.195,-5.301c0,-1.992 0.789,-3.899 2.195,-5.305c1.407,-1.406 3.313,-2.195 5.305,-2.195c4.141,0 7.5,3.355 7.5,7.5Z"
        fill="#000" />
    <path
        d="M645,7.5c0,4.141 -3.359,7.5 -7.5,7.5c-1.992,0 -3.898,-0.793 -5.305,-2.199c-1.406,-1.407 -2.195,-3.313 -2.195,-5.301c0,-1.992 0.789,-3.899 2.195,-5.305c1.407,-1.406 3.313,-2.195 5.305,-2.195c4.141,0 7.5,3.355 7.5,7.5Z"
        fill="#000" />
    <path
        d="M735,7.5c0,4.141 -3.359,7.5 -7.5,7.5c-1.992,0 -3.898,-0.793 -5.305,-2.199c-1.406,-1.407 -2.195,-3.313 -2.195,-5.301c0,-1.992 0.789,-3.899 2.195,-5.305c1.407,-1.406 3.313,-2.195 5.305,-2.195c4.141,0 7.5,3.355 7.5,7.5Z"
        fill="#000" />
    <path
        d="M15,97.5c0,4.141 -3.359,7.5 -7.5,7.5c-1.992,0 -3.898,-0.793 -5.305,-2.199c-1.406,-1.407 -2.195,-3.313 -2.195,-5.301c-0,-1.992 0.789,-3.899 2.195,-5.305c1.407,-1.406 3.313,-2.195 5.305,-2.195c4.141,0 7.5,3.355 7.5,7.5Z"
        fill="#000" />
    <path
        d="M105,97.5c0,4.141 -3.359,7.5 -7.5,7.5c-1.992,0 -3.898,-0.793 -5.305,-2.199c-1.406,-1.407 -2.195,-3.313 -2.195,-5.301c0,-1.992 0.789,-3.899 2.195,-5.305c1.407,-1.406 3.313,-2.195 5.305,-2.195c4.141,0 7.5,3.355 7.5,7.5Z"
        fill="#000" />
    <path
        d="M195,97.5c0,4.141 -3.359,7.5 -7.5,7.5c-1.992,0 -3.898,-0.793 -5.305,-2.199c-1.406,-1.407 -2.195,-3.313 -2.195,-5.301c0,-1.992 0.789,-3.899 2.195,-5.305c1.407,-1.406 3.313,-2.195 5.305,-2.195c4.141,0 7.5,3.355 7.5,7.5Z"
        fill="#000" />
    <path
        d="M285,97.5c0,4.141 -3.359,7.5 -7.5,7.5c-1.992,0 -3.898,-0.793 -5.305,-2.199c-1.406,-1.407 -2.195,-3.313 -2.195,-5.301c0,-1.992 0.789,-3.899 2.195,-5.305c1.407,-1.406 3.313,-2.195 5.305,-2.195c4.141,0 7.5,3.355 7.5,7.5Z"
        fill="#000" />
    <path
        d="M375,97.5c0,4.141 -3.359,7.5 -7.5,7.5c-1.992,0 -3.898,-0.793 -5.305,-2.199c-1.406,-1.407 -2.195,-3.313 -2.195,-5.301c0,-1.992 0.789,-3.899 2.195,-5.305c1.407,-1.406 3.313,-2.195 5.305,-2.195c4.141,0 7.5,3.355 7.5,7.5Z"
        fill="#000" />
    <path
        d="M465,97.5c0,4.141 -3.359,7.5 -7.5,7.5c-1.992,0 -3.898,-0.793 -5.305,-2.199c-1.406,-1.407 -2.195,-3.313 -2.195,-5.301c0,-1.992 0.789,-3.899 2.195,-5.305c1.407,-1.406 3.313,-2.195 5.305,-2.195c4.141,0 7.5,3.355 7.5,7.5Z"
        fill="#000" />
    <path
        d="M555,97.5c0,4.141 -3.359,7.5 -7.5,7.5c-1.992,0 -3.898,-0.793 -5.305,-2.199c-1.406,-1.407 -2.195,-3.313 -2.195,-5.301c0,-1.992 0.789,-3.899 2.195,-5.305c1.407,-1.406 3.313,-2.195 5.305,-2.195c4.141,0 7.5,3.355 7.5,7.5Z"
        fill="#000" />
    <path
        d="M645,97.5c0,4.141 -3.359,7.5 -7.5,7.5c-1.992,0 -3.898,-0.793 -5.305,-2.199c-1.406,-1.407 -2.195,-3.313 -2.195,-5.301c0,-1.992 0.789,-3.899 2.195,-5.305c1.407,-1.406 3.313,-2.195 5.305,-2.195c4.141,0 7.5,3.355 7.5,7.5Z"
        fill="#000" />
    <path
        d="M735,97.5c0,4.141 -3.359,7.5 -7.5,7.5c-1.992,0 -3.898,-0.793 -5.305,-2.199c-1.406,-1.407 -2.195,-3.313 -2.195,-5.301c0,-1.992 0.789,-3.899 2.195,-5.305c1.407,-1.406 3.313,-2.195 5.305,-2.195c4.141,0 7.5,3.355 7.5,7.5Z"
        fill="#000" />
    <path
        d="M15,187.5c0,4.141 -3.359,7.5 -7.5,7.5c-1.992,0 -3.898,-0.793 -5.305,-2.199c-1.406,-1.407 -2.195,-3.313 -2.195,-5.301c-0,-1.992 0.789,-3.899 2.195,-5.305c1.407,-1.406 3.313,-2.195 5.305,-2.195c4.141,0 7.5,3.355 7.5,7.5Z"
        fill="#000" />
    <path
        d="M105,187.5c0,4.141 -3.359,7.5 -7.5,7.5c-1.992,0 -3.898,-0.793 -5.305,-2.199c-1.406,-1.407 -2.195,-3.313 -2.195,-5.301c0,-1.992 0.789,-3.899 2.195,-5.305c1.407,-1.406 3.313,-2.195 5.305,-2.195c4.141,0 7.5,3.355 7.5,7.5Z"
        fill="#000" />
    <path
        d="M195,187.5c0,4.141 -3.359,7.5 -7.5,7.5c-1.992,0 -3.898,-0.793 -5.305,-2.199c-1.406,-1.407 -2.195,-3.313 -2.195,-5.301c0,-1.992 0.789,-3.899 2.195,-5.305c1.407,-1.406 3.313,-2.195 5.305,-2.195c4.141,0 7.5,3.355 7.5,7.5Z"
        fill="#000" />
    <path
        d="M285,187.5c0,4.141 -3.359,7.5 -7.5,7.5c-1.992,0 -3.898,-0.793 -5.305,-2.199c-1.406,-1.407 -2.195,-3.313 -2.195,-5.301c0,-1.992 0.789,-3.899 2.195,-5.305c1.407,-1.406 3.313,-2.195 5.305,-2.195c4.141,0 7.5,3.355 7.5,7.5Z"
        fill="#000" />
    <path
        d="M375,187.5c0,4.141 -3.359,7.5 -7.5,7.5c-1.992,0 -3.898,-0.793 -5.305,-2.199c-1.406,-1.407 -2.195,-3.313 -2.195,-5.301c0,-1.992 0.789,-3.899 2.195,-5.305c1.407,-1.406 3.313,-2.195 5.305,-2.195c4.141,0 7.5,3.355 7.5,7.5Z"
        fill="#000" />
    <path
        d="M465,187.5c0,4.141 -3.359,7.5 -7.5,7.5c-1.992,0 -3.898,-0.793 -5.305,-2.199c-1.406,-1.407 -2.195,-3.313 -2.195,-5.301c0,-1.992 0.789,-3.899 2.195,-5.305c1.407,-1.406 3.313,-2.195 5.305,-2.195c4.141,0 7.5,3.355 7.5,7.5Z"
        fill="#000" />
    <path
        d="M555,187.5c0,4.141 -3.359,7.5 -7.5,7.5c-1.992,0 -3.898,-0.793 -5.305,-2.199c-1.406,-1.407 -2.195,-3.313 -2.195,-5.301c0,-1.992 0.789,-3.899 2.195,-5.305c1.407,-1.406 3.313,-2.195 5.305,-2.195c4.141,0 7.5,3.355 7.5,7.5Z"
        fill="#000" />
    <path
        d="M645,187.5c0,4.141 -3.359,7.5 -7.5,7.5c-1.992,0 -3.898,-0.793 -5.305,-2.199c-1.406,-1.407 -2.195,-3.313 -2.195,-5.301c0,-1.992 0.789,-3.899 2.195,-5.305c1.407,-1.406 3.313,-2.195 5.305,-2.195c4.141,0 7.5,3.355 7.5,7.5Z"
        fill="#000" />
    <path
        d="M735,187.5c0,4.141 -3.359,7.5 -7.5,7.5c-1.992,0 -3.898,-0.793 -5.305,-2.199c-1.406,-1.407 -2.195,-3.313 -2.195,-5.301c0,-1.992 0.789,-3.899 2.195,-5.305c1.407,-1.406 3.313,-2.195 5.305,-2.195c4.141,0 7.5,3.355 7.5,7.5Z"
        fill="#000" />
    <path
        d="M15,277.5c0,4.141 -3.359,7.5 -7.5,7.5c-1.992,0 -3.898,-0.793 -5.305,-2.199c-1.406,-1.407 -2.195,-3.313 -2.195,-5.301c-0,-1.992 0.789,-3.899 2.195,-5.305c1.407,-1.406 3.313,-2.195 5.305,-2.195c4.141,0 7.5,3.355 7.5,7.5Z"
        fill="#000" />
    <path
        d="M105,277.5c0,4.141 -3.359,7.5 -7.5,7.5c-1.992,0 -3.898,-0.793 -5.305,-2.199c-1.406,-1.407 -2.195,-3.313 -2.195,-5.301c0,-1.992 0.789,-3.899 2.195,-5.305c1.407,-1.406 3.313,-2.195 5.305,-2.195c4.141,0 7.5,3.355 7.5,7.5Z"
        fill="#000" />
    <path
        d="M195,277.5c0,4.141 -3.359,7.5 -7.5,7.5c-1.992,0 -3.898,-0.793 -5.305,-2.199c-1.406,-1.407 -2.195,-3.313 -2.195,-5.301c0,-1.992 0.789,-3.899 2.195,-5.305c1.407,-1.406 3.313,-2.195 5.305,-2.195c4.141,0 7.5,3.355 7.5,7.5Z"
        fill="#000" />
    <path
        d="M285,277.5c0,4.141 -3.359,7.5 -7.5,7.5c-1.992,0 -3.898,-0.793 -5.305,-2.199c-1.406,-1.407 -2.195,-3.313 -2.195,-5.301c0,-1.992 0.789,-3.899 2.195,-5.305c1.407,-1.406 3.313,-2.195 5.305,-2.195c4.141,0 7.5,3.355 7.5,7.5Z"
        fill="#000" />
    <path
        d="M375,277.5c0,4.141 -3.359,7.5 -7.5,7.5c-1.992,0 -3.898,-0.793 -5.305,-2.199c-1.406,-1.407 -2.195,-3.313 -2.195,-5.301c0,-1.992 0.789,-3.899 2.195,-5.305c1.407,-1.406 3.313,-2.195 5.305,-2.195c4.141,0 7.5,3.355 7.5,7.5Z"
        fill="#000" />
    <path
        d="M465,277.5c0,4.141 -3.359,7.5 -7.5,7.5c-1.992,0 -3.898,-0.793 -5.305,-2.199c-1.406,-1.407 -2.195,-3.313 -2.195,-5.301c0,-1.992 0.789,-3.899 2.195,-5.305c1.407,-1.406 3.313,-2.195 5.305,-2.195c4.141,0 7.5,3.355 7.5,7.5Z"
        fill="#000" />
    <path
        d="M555,277.5c0,4.141 -3.359,7.5 -7.5,7.5c-1.992,0 -3.898,-0.793 -5.305,-2.199c-1.406,-1.407 -2.195,-3.313 -2.195,-5.301c0,-1.992 0.789,-3.899 2.195,-5.305c1.407,-1.406 3.313,-2.195 5.305,-2.195c4.141,0 7.5,3.355 7.5,7.5Z"
        fill="#000" />
    <path
        d="M645,277.5c0,4.141 -3.359,7.5 -7.5,7.5c-1.992,0 -3.898,-0.793 -5.305,-2.199c-1.406,-1.407 -2.195,-3.313 -2.195,-5.301c0,-1.992 0.789,-3.899 2.195,-5.305c1.407,-1.406 3.313,-2.195 5.305,-2.195c4.141,0 7.5,3.355 7.5,7.5Z"
        fill="#000" />
    <path
        d="M735,277.5c0,4.141 -3.359,7.5 -7.5,7.5c-1.992,0 -3.898,-0.793 -5.305,-2.199c-1.406,-1.407 -2.195,-3.313 -2.195,-5.301c0,-1.992 0.789,-3.899 2.195,-5.305c1.407,-1.406 3.313,-2.195 5.305,-2.195c4.141,0 7.5,3.355 7.5,7.5Z"
        fill="#000" />
</svg>