<?xml version="1.0" standalone="no"?>
<!DOCTYPE svg PUBLIC "-//W3C//DTD SVG 20010904//EN"
 "http://www.w3.org/TR/2001/REC-SVG-20010904/DTD/svg10.dtd">
<svg version="1.0" xmlns="http://www.w3.org/2000/svg"
 width="400.000000pt" height="400.000000pt" viewBox="0 0 400.000000 400.000000"
 preserveAspectRatio="xMidYMid meet">
<metadata>
Created by potrace 1.11, written by Peter Selinger 2001-2013
</metadata>
<g transform="translate(0.000000,400.000000) scale(0.100000,-0.100000)"
fill="#000000" stroke="none">
<path d="M1810 3818 l-135 -49 -155 -3 -156 -2 -126 -100 c-123 -97 -130 -101
-265 -148 -76 -27 -143 -53 -149 -57 -5 -5 -46 -65 -89 -135 -76 -121 -85
-131 -197 -221 -108 -87 -131 -109 -133 -123 -1 -3 -16 -68 -35 -145 -33 -136
-36 -144 -118 -274 l-84 -134 7 -76 c3 -42 8 -89 11 -105 13 -80 5 -167 -25
-291 -18 -71 -30 -142 -27 -156 2 -14 27 -72 54 -130 61 -129 69 -156 77 -244
3 -38 8 -97 12 -130 3 -33 6 -65 6 -72 0 -12 31 -47 153 -174 62 -65 77 -91
168 -296 28 -61 28 -61 129 -114 56 -29 118 -61 137 -71 19 -10 85 -71 145
-134 61 -63 119 -116 130 -118 11 -2 56 -9 100 -16 91 -13 122 -18 165 -25 17
-3 89 -37 161 -75 133 -71 153 -77 224 -61 22 5 56 12 75 15 19 3 57 10 84 15
46 8 126 8 171 -2 64 -14 183 -30 208 -29 9 0 30 10 46 21 16 12 31 21 34 21
3 0 47 24 99 54 51 29 113 57 138 62 25 4 47 8 50 9 3 0 28 5 55 10 28 5 52 9
55 10 3 0 28 4 55 9 36 5 57 15 73 34 174 200 181 206 320 283 152 85 137 69
206 230 58 137 68 153 146 240 46 52 92 103 102 114 18 21 22 50 34 230 5 92
10 111 65 243 32 78 59 149 59 157 0 8 -14 65 -31 127 -47 172 -48 181 -35
318 13 142 11 179 -12 203 -12 13 -22 28 -22 34 0 6 -3 13 -7 15 -7 3 -43 53
-78 109 -5 9 -18 28 -28 41 -9 14 -24 52 -33 84 -8 32 -27 102 -40 154 -14 52
-31 98 -39 103 -8 4 -20 13 -27 20 -7 6 -57 45 -110 84 -90 67 -104 82 -187
206 l-90 133 -148 47 c-148 47 -148 47 -273 142 l-125 96 -160 -2 -160 -1
-139 46 c-76 25 -148 46 -160 45 -12 0 -82 -23 -156 -51z m338 -192 c46 -4
102 -10 125 -16 23 -5 54 -11 68 -13 114 -21 301 -90 429 -159 274 -148 521
-395 667 -668 85 -158 160 -391 180 -559 14 -119 9 -377 -11 -491 -89 -508
-419 -951 -879 -1179 -173 -85 -384 -149 -553 -166 -70 -7 -280 -7 -332 0 -21
2 -55 7 -77 9 -22 3 -71 12 -110 21 -536 122 -964 486 -1170 995 -14 36 -30
81 -35 100 -5 19 -16 60 -24 90 -9 30 -19 71 -22 90 -3 19 -7 42 -9 50 -19 71
-26 327 -12 453 51 465 312 900 697 1163 229 156 524 262 780 280 47 4 86 7
87 8 3 2 116 -2 201 -8z"/>
<path d="M1760 3450 c-267 -47 -515 -164 -712 -334 l-57 -49 14 -36 c7 -20 61
-169 120 -331 58 -162 112 -311 120 -330 8 -19 35 -95 61 -167 26 -73 51 -133
55 -133 4 0 30 21 57 48 81 76 211 143 326 168 50 11 153 5 194 -11 l43 -18
65 66 c84 85 175 143 276 177 194 65 340 25 435 -120 36 -55 28 -35 230 -589
91 -251 178 -492 194 -535 16 -44 31 -81 32 -83 2 -2 10 9 17 25 8 15 22 39
31 53 77 113 156 333 194 539 13 71 13 325 -1 413 -74 492 -371 902 -807 1116
-112 54 -225 95 -327 116 -36 8 -79 17 -95 20 -17 4 -104 8 -195 10 -128 3
-189 -1 -270 -15z"/>
<path d="M758 2782 c-77 -133 -164 -340 -183 -432 -51 -243 -54 -452 -9 -655
65 -299 214 -561 435 -769 118 -111 280 -218 414 -272 33 -14 69 -29 80 -34
39 -17 151 -48 240 -66 68 -14 133 -19 270 -18 194 0 292 15 460 70 164 53
381 178 499 287 l46 42 -159 436 c-154 424 -180 495 -262 723 -62 172 -100
205 -204 181 -77 -18 -143 -54 -204 -111 l-56 -52 17 -44 c14 -36 71 -189 122
-328 8 -19 36 -98 64 -175 28 -77 66 -184 85 -237 l35 -97 -91 -34 c-124 -47
-159 -58 -166 -52 -2 3 -71 188 -152 411 -156 429 -167 452 -235 474 -48 16
-109 4 -200 -41 -92 -45 -179 -122 -168 -148 23 -56 314 -864 312 -866 -9 -6
-235 -85 -244 -85 -6 0 -32 60 -58 133 -95 265 -138 382 -146 402 -5 11 -95
259 -200 550 -217 601 -299 825 -309 842 -4 7 -17 -6 -33 -35z"/>
</g>
</svg>
